<?xml version="1.0" encoding="UTF-8" standalone="no"?><svg xmlns="http://www.w3.org/2000/svg" xmlns:xlink="http://www.w3.org/1999/xlink" contentStyleType="text/css" height="741px" preserveAspectRatio="none" style="width:2289px;height:741px;background:#FFFFFF;" version="1.1" viewBox="0 0 2289 741" width="2289px" zoomAndPan="magnify"><defs/><g><rect fill="none" height="27.6094" id="_title" style="stroke:none;stroke-width:1.0;" width="247" x="1014.25" y="5"/><text fill="#000000" font-family="sans-serif" font-size="14" font-weight="bold" lengthAdjust="spacing" textLength="237" x="1019.25" y="24.5332">carDrivingInTunnel_ClassDiagram</text><!--MD5=[068c93ef636035b2e3696739be14ade4]
class OutputFile--><g id="elem_OutputFile"><rect codeLine="2" fill="#F1F1F1" height="83.2188" id="OutputFile" rx="2.5" ry="2.5" style="stroke:#181818;stroke-width:0.5;" width="173" x="32" y="651.6094"/><ellipse cx="81.25" cy="667.6094" fill="#ADD1B2" rx="11" ry="11" style="stroke:#181818;stroke-width:1.0;"/><path d="M83.9531,673.0469 Q83.0313,673.9688 80.7656,673.9688 Q79.5,673.9688 78.5781,673.0469 Q76.9219,671.3906 76.9219,667.8594 Q76.9219,663.75 78.7031,661.9531 Q79.6406,661.0313 80.8281,661.0313 Q83.0938,661.0313 83.8281,661.75 Q85.2188,663.1563 85.1563,665.5469 L82.6875,665.5469 Q82.625,663.4219 81.8906,662.6875 Q81.5,662.2813 80.8281,662.2813 Q80.8281,662.2813 80.7656,662.75 Q79.4375,664.0781 79.4375,667.7344 Q79.4375,670.9219 80.5781,672.0469 Q81.1094,672.5781 81.1094,672.5781 Q81.3594,672.5781 81.8906,672.0469 Q82.5625,671.3906 82.625,669 L85.2188,669 Q85.0156,671.9844 83.9531,673.0469 Z " fill="#000000"/><text fill="#000000" font-family="sans-serif" font-size="14" lengthAdjust="spacing" textLength="66" x="101.75" y="673.3379">OutputFile</text><line style="stroke:#181818;stroke-width:0.5;" x1="33" x2="204" y1="683.6094" y2="683.6094"/><ellipse cx="43" cy="697.9141" fill="none" rx="3" ry="3" style="stroke:#038048;stroke-width:1.0;"/><text fill="#000000" font-family="sans-serif" font-size="14" lengthAdjust="spacing" textLength="147" x="52" y="702.1426">outputString: std::string</text><line style="stroke:#181818;stroke-width:0.5;" x1="33" x2="204" y1="709.2188" y2="709.2188"/><ellipse cx="43" cy="723.5234" fill="#84BE84" rx="3" ry="3" style="stroke:#038048;stroke-width:1.0;"/><text fill="#000000" font-family="sans-serif" font-size="14" lengthAdjust="spacing" textLength="136" x="52" y="727.752">OutputFile(void): void</text></g><!--MD5=[971d362e745f15447b884d912bfe0f09]
class GenerateImage--><g id="elem_GenerateImage"><rect codeLine="8" fill="#F1F1F1" height="100.8281" id="GenerateImage" rx="2.5" ry="2.5" style="stroke:#181818;stroke-width:0.5;" width="223" x="7" y="464.1094"/><ellipse cx="65.25" cy="480.1094" fill="#ADD1B2" rx="11" ry="11" style="stroke:#181818;stroke-width:1.0;"/><path d="M67.9531,485.5469 Q67.0313,486.4688 64.7656,486.4688 Q63.5,486.4688 62.5781,485.5469 Q60.9219,483.8906 60.9219,480.3594 Q60.9219,476.25 62.7031,474.4531 Q63.6406,473.5313 64.8281,473.5313 Q67.0938,473.5313 67.8281,474.25 Q69.2188,475.6563 69.1563,478.0469 L66.6875,478.0469 Q66.625,475.9219 65.8906,475.1875 Q65.5,474.7813 64.8281,474.7813 Q64.8281,474.7813 64.7656,475.25 Q63.4375,476.5781 63.4375,480.2344 Q63.4375,483.4219 64.5781,484.5469 Q65.1094,485.0781 65.1094,485.0781 Q65.3594,485.0781 65.8906,484.5469 Q66.5625,483.8906 66.625,481.5 L69.2188,481.5 Q69.0156,484.4844 67.9531,485.5469 Z " fill="#000000"/><text fill="#000000" font-family="sans-serif" font-size="14" lengthAdjust="spacing" textLength="98" x="85.75" y="485.8379">GenerateImage</text><line style="stroke:#181818;stroke-width:0.5;" x1="8" x2="229" y1="496.1094" y2="496.1094"/><ellipse cx="18" cy="510.4141" fill="none" rx="3" ry="3" style="stroke:#038048;stroke-width:1.0;"/><text fill="#000000" font-family="sans-serif" font-size="14" lengthAdjust="spacing" textLength="164" x="27" y="514.6426">drawObjects: DrawObject*</text><line style="stroke:#181818;stroke-width:0.5;" x1="8" x2="229" y1="521.7188" y2="521.7188"/><ellipse cx="18" cy="536.0234" fill="#84BE84" rx="3" ry="3" style="stroke:#038048;stroke-width:1.0;"/><text fill="#000000" font-family="sans-serif" font-size="14" lengthAdjust="spacing" textLength="197" x="27" y="540.252">GenerateImage(int frame): void</text><ellipse cx="18" cy="553.6328" fill="#84BE84" rx="3" ry="3" style="stroke:#038048;stroke-width:1.0;"/><text fill="#000000" font-family="sans-serif" font-size="14" lengthAdjust="spacing" textLength="178" x="27" y="557.8613">makeImage(void): std::string</text></g><!--MD5=[9c0bc6c8de09b6d0bb5c0105a9b8511e]
class Background--><g id="elem_Background"><rect codeLine="14" fill="#F1F1F1" height="83.2188" id="Background" rx="2.5" ry="2.5" style="stroke:#181818;stroke-width:0.5;" width="238" x="265.5" y="473.1094"/><ellipse cx="342.25" cy="489.1094" fill="#ADD1B2" rx="11" ry="11" style="stroke:#181818;stroke-width:1.0;"/><path d="M344.9531,494.5469 Q344.0313,495.4688 341.7656,495.4688 Q340.5,495.4688 339.5781,494.5469 Q337.9219,492.8906 337.9219,489.3594 Q337.9219,485.25 339.7031,483.4531 Q340.6406,482.5313 341.8281,482.5313 Q344.0938,482.5313 344.8281,483.25 Q346.2188,484.6563 346.1563,487.0469 L343.6875,487.0469 Q343.625,484.9219 342.8906,484.1875 Q342.5,483.7813 341.8281,483.7813 Q341.8281,483.7813 341.7656,484.25 Q340.4375,485.5781 340.4375,489.2344 Q340.4375,492.4219 341.5781,493.5469 Q342.1094,494.0781 342.1094,494.0781 Q342.3594,494.0781 342.8906,493.5469 Q343.5625,492.8906 343.625,490.5 L346.2188,490.5 Q346.0156,493.4844 344.9531,494.5469 Z " fill="#000000"/><text fill="#000000" font-family="sans-serif" font-size="14" lengthAdjust="spacing" textLength="76" x="362.75" y="494.8379">Background</text><line style="stroke:#181818;stroke-width:0.5;" x1="266.5" x2="502.5" y1="505.1094" y2="505.1094"/><ellipse cx="276.5" cy="519.4141" fill="none" rx="3" ry="3" style="stroke:#038048;stroke-width:1.0;"/><text fill="#000000" font-family="sans-serif" font-size="14" lengthAdjust="spacing" textLength="147" x="285.5" y="523.6426">rectangle: Quadrangle*</text><line style="stroke:#181818;stroke-width:0.5;" x1="266.5" x2="502.5" y1="530.7188" y2="530.7188"/><ellipse cx="276.5" cy="545.0234" fill="#84BE84" rx="3" ry="3" style="stroke:#038048;stroke-width:1.0;"/><text fill="#000000" font-family="sans-serif" font-size="14" lengthAdjust="spacing" textLength="212" x="285.5" y="549.252">Background(vector&lt;Point*&gt;): void</text></g><!--MD5=[67f839aab6e0574022f12d82eddb36b7]
class TunnelWall--><g id="elem_TunnelWall"><rect codeLine="18" fill="#F1F1F1" height="83.2188" id="TunnelWall" rx="2.5" ry="2.5" style="stroke:#181818;stroke-width:0.5;" width="233" x="539" y="473.1094"/><ellipse cx="615.75" cy="489.1094" fill="#ADD1B2" rx="11" ry="11" style="stroke:#181818;stroke-width:1.0;"/><path d="M618.4531,494.5469 Q617.5313,495.4688 615.2656,495.4688 Q614,495.4688 613.0781,494.5469 Q611.4219,492.8906 611.4219,489.3594 Q611.4219,485.25 613.2031,483.4531 Q614.1406,482.5313 615.3281,482.5313 Q617.5938,482.5313 618.3281,483.25 Q619.7188,484.6563 619.6563,487.0469 L617.1875,487.0469 Q617.125,484.9219 616.3906,484.1875 Q616,483.7813 615.3281,483.7813 Q615.3281,483.7813 615.2656,484.25 Q613.9375,485.5781 613.9375,489.2344 Q613.9375,492.4219 615.0781,493.5469 Q615.6094,494.0781 615.6094,494.0781 Q615.8594,494.0781 616.3906,493.5469 Q617.0625,492.8906 617.125,490.5 L619.7188,490.5 Q619.5156,493.4844 618.4531,494.5469 Z " fill="#000000"/><text fill="#000000" font-family="sans-serif" font-size="14" lengthAdjust="spacing" textLength="71" x="636.25" y="494.8379">TunnelWall</text><line style="stroke:#181818;stroke-width:0.5;" x1="540" x2="771" y1="505.1094" y2="505.1094"/><ellipse cx="550" cy="519.4141" fill="none" rx="3" ry="3" style="stroke:#038048;stroke-width:1.0;"/><text fill="#000000" font-family="sans-serif" font-size="14" lengthAdjust="spacing" textLength="172" x="559" y="523.6426">tunnelCrossSection: Circle*</text><line style="stroke:#181818;stroke-width:0.5;" x1="540" x2="771" y1="530.7188" y2="530.7188"/><ellipse cx="550" cy="545.0234" fill="#84BE84" rx="3" ry="3" style="stroke:#038048;stroke-width:1.0;"/><text fill="#000000" font-family="sans-serif" font-size="14" lengthAdjust="spacing" textLength="207" x="559" y="549.252">TunnelWall(vector&lt;Point*&gt;): void</text></g><!--MD5=[7c1a0278dec21c72584b17e1785fd623]
class Light--><g id="elem_Light"><rect codeLine="22" fill="#F1F1F1" height="83.2188" id="Light" rx="2.5" ry="2.5" style="stroke:#181818;stroke-width:0.5;" width="220" x="807.5" y="473.1094"/><ellipse cx="897.75" cy="489.1094" fill="#ADD1B2" rx="11" ry="11" style="stroke:#181818;stroke-width:1.0;"/><path d="M900.4531,494.5469 Q899.5313,495.4688 897.2656,495.4688 Q896,495.4688 895.0781,494.5469 Q893.4219,492.8906 893.4219,489.3594 Q893.4219,485.25 895.2031,483.4531 Q896.1406,482.5313 897.3281,482.5313 Q899.5938,482.5313 900.3281,483.25 Q901.7188,484.6563 901.6563,487.0469 L899.1875,487.0469 Q899.125,484.9219 898.3906,484.1875 Q898,483.7813 897.3281,483.7813 Q897.3281,483.7813 897.2656,484.25 Q895.9375,485.5781 895.9375,489.2344 Q895.9375,492.4219 897.0781,493.5469 Q897.6094,494.0781 897.6094,494.0781 Q897.8594,494.0781 898.3906,493.5469 Q899.0625,492.8906 899.125,490.5 L901.7188,490.5 Q901.5156,493.4844 900.4531,494.5469 Z " fill="#000000"/><text fill="#000000" font-family="sans-serif" font-size="14" lengthAdjust="spacing" textLength="31" x="918.25" y="494.8379">Light</text><line style="stroke:#181818;stroke-width:0.5;" x1="808.5" x2="1026.5" y1="505.1094" y2="505.1094"/><ellipse cx="818.5" cy="519.4141" fill="none" rx="3" ry="3" style="stroke:#038048;stroke-width:1.0;"/><text fill="#000000" font-family="sans-serif" font-size="14" lengthAdjust="spacing" textLength="194" x="827.5" y="523.6426">lightBlur: vector&lt;Quadrangle*&gt;</text><line style="stroke:#181818;stroke-width:0.5;" x1="808.5" x2="1026.5" y1="530.7188" y2="530.7188"/><ellipse cx="818.5" cy="545.0234" fill="#84BE84" rx="3" ry="3" style="stroke:#038048;stroke-width:1.0;"/><text fill="#000000" font-family="sans-serif" font-size="14" lengthAdjust="spacing" textLength="167" x="827.5" y="549.252">Light(vector&lt;Point*&gt;): void</text></g><!--MD5=[fbcb1dceea9c260248071806a7ce1500]
class Road--><g id="elem_Road"><rect codeLine="27" fill="#F1F1F1" height="83.2188" id="Road" rx="2.5" ry="2.5" style="stroke:#181818;stroke-width:0.5;" width="196" x="1062.5" y="473.1094"/><ellipse cx="1139.25" cy="489.1094" fill="#ADD1B2" rx="11" ry="11" style="stroke:#181818;stroke-width:1.0;"/><path d="M1141.9531,494.5469 Q1141.0313,495.4688 1138.7656,495.4688 Q1137.5,495.4688 1136.5781,494.5469 Q1134.9219,492.8906 1134.9219,489.3594 Q1134.9219,485.25 1136.7031,483.4531 Q1137.6406,482.5313 1138.8281,482.5313 Q1141.0938,482.5313 1141.8281,483.25 Q1143.2188,484.6563 1143.1563,487.0469 L1140.6875,487.0469 Q1140.625,484.9219 1139.8906,484.1875 Q1139.5,483.7813 1138.8281,483.7813 Q1138.8281,483.7813 1138.7656,484.25 Q1137.4375,485.5781 1137.4375,489.2344 Q1137.4375,492.4219 1138.5781,493.5469 Q1139.1094,494.0781 1139.1094,494.0781 Q1139.3594,494.0781 1139.8906,493.5469 Q1140.5625,492.8906 1140.625,490.5 L1143.2188,490.5 Q1143.0156,493.4844 1141.9531,494.5469 Z " fill="#000000"/><text fill="#000000" font-family="sans-serif" font-size="14" lengthAdjust="spacing" textLength="34" x="1159.75" y="494.8379">Road</text><line style="stroke:#181818;stroke-width:0.5;" x1="1063.5" x2="1257.5" y1="505.1094" y2="505.1094"/><ellipse cx="1073.5" cy="519.4141" fill="none" rx="3" ry="3" style="stroke:#038048;stroke-width:1.0;"/><text fill="#000000" font-family="sans-serif" font-size="14" lengthAdjust="spacing" textLength="146" x="1082.5" y="523.6426">trapezoid: Quadrangle*</text><line style="stroke:#181818;stroke-width:0.5;" x1="1063.5" x2="1257.5" y1="530.7188" y2="530.7188"/><ellipse cx="1073.5" cy="545.0234" fill="#84BE84" rx="3" ry="3" style="stroke:#038048;stroke-width:1.0;"/><text fill="#000000" font-family="sans-serif" font-size="14" lengthAdjust="spacing" textLength="170" x="1082.5" y="549.252">Road(vector&lt;Point*&gt;): void</text></g><!--MD5=[68b55a73642786a161594e5c29c3c1a8]
class WhiteLine--><g id="elem_WhiteLine"><rect codeLine="32" fill="#F1F1F1" height="83.2188" id="WhiteLine" rx="2.5" ry="2.5" style="stroke:#181818;stroke-width:0.5;" width="225" x="1123" y="651.6094"/><ellipse cx="1199.75" cy="667.6094" fill="#ADD1B2" rx="11" ry="11" style="stroke:#181818;stroke-width:1.0;"/><path d="M1202.4531,673.0469 Q1201.5313,673.9688 1199.2656,673.9688 Q1198,673.9688 1197.0781,673.0469 Q1195.4219,671.3906 1195.4219,667.8594 Q1195.4219,663.75 1197.2031,661.9531 Q1198.1406,661.0313 1199.3281,661.0313 Q1201.5938,661.0313 1202.3281,661.75 Q1203.7188,663.1563 1203.6563,665.5469 L1201.1875,665.5469 Q1201.125,663.4219 1200.3906,662.6875 Q1200,662.2813 1199.3281,662.2813 Q1199.3281,662.2813 1199.2656,662.75 Q1197.9375,664.0781 1197.9375,667.7344 Q1197.9375,670.9219 1199.0781,672.0469 Q1199.6094,672.5781 1199.6094,672.5781 Q1199.8594,672.5781 1200.3906,672.0469 Q1201.0625,671.3906 1201.125,669 L1203.7188,669 Q1203.5156,671.9844 1202.4531,673.0469 Z " fill="#000000"/><text fill="#000000" font-family="sans-serif" font-size="14" lengthAdjust="spacing" textLength="63" x="1220.25" y="673.3379">WhiteLine</text><line style="stroke:#181818;stroke-width:0.5;" x1="1124" x2="1347" y1="683.6094" y2="683.6094"/><ellipse cx="1134" cy="697.9141" fill="none" rx="3" ry="3" style="stroke:#038048;stroke-width:1.0;"/><text fill="#000000" font-family="sans-serif" font-size="14" lengthAdjust="spacing" textLength="146" x="1143" y="702.1426">trapezoid: Quadrangle*</text><line style="stroke:#181818;stroke-width:0.5;" x1="1124" x2="1347" y1="709.2188" y2="709.2188"/><ellipse cx="1134" cy="723.5234" fill="#84BE84" rx="3" ry="3" style="stroke:#038048;stroke-width:1.0;"/><text fill="#000000" font-family="sans-serif" font-size="14" lengthAdjust="spacing" textLength="199" x="1143" y="727.752">WhiteLine(vector&lt;Point*&gt;): void</text></g><!--MD5=[9872313f8092728324d7c85645b16f10]
class HeadLight--><g id="elem_HeadLight"><rect codeLine="37" fill="#F1F1F1" height="83.2188" id="HeadLight" rx="2.5" ry="2.5" style="stroke:#181818;stroke-width:0.5;" width="226" x="1364.5" y="473.1094"/><ellipse cx="1441.25" cy="489.1094" fill="#ADD1B2" rx="11" ry="11" style="stroke:#181818;stroke-width:1.0;"/><path d="M1443.9531,494.5469 Q1443.0313,495.4688 1440.7656,495.4688 Q1439.5,495.4688 1438.5781,494.5469 Q1436.9219,492.8906 1436.9219,489.3594 Q1436.9219,485.25 1438.7031,483.4531 Q1439.6406,482.5313 1440.8281,482.5313 Q1443.0938,482.5313 1443.8281,483.25 Q1445.2188,484.6563 1445.1563,487.0469 L1442.6875,487.0469 Q1442.625,484.9219 1441.8906,484.1875 Q1441.5,483.7813 1440.8281,483.7813 Q1440.8281,483.7813 1440.7656,484.25 Q1439.4375,485.5781 1439.4375,489.2344 Q1439.4375,492.4219 1440.5781,493.5469 Q1441.1094,494.0781 1441.1094,494.0781 Q1441.3594,494.0781 1441.8906,493.5469 Q1442.5625,492.8906 1442.625,490.5 L1445.2188,490.5 Q1445.0156,493.4844 1443.9531,494.5469 Z " fill="#000000"/><text fill="#000000" font-family="sans-serif" font-size="14" lengthAdjust="spacing" textLength="64" x="1461.75" y="494.8379">HeadLight</text><line style="stroke:#181818;stroke-width:0.5;" x1="1365.5" x2="1589.5" y1="505.1094" y2="505.1094"/><ellipse cx="1375.5" cy="519.4141" fill="none" rx="3" ry="3" style="stroke:#038048;stroke-width:1.0;"/><text fill="#000000" font-family="sans-serif" font-size="14" lengthAdjust="spacing" textLength="155" x="1384.5" y="523.6426">lightBlur: vector&lt;Circle*&gt;</text><line style="stroke:#181818;stroke-width:0.5;" x1="1365.5" x2="1589.5" y1="530.7188" y2="530.7188"/><ellipse cx="1375.5" cy="545.0234" fill="#84BE84" rx="3" ry="3" style="stroke:#038048;stroke-width:1.0;"/><text fill="#000000" font-family="sans-serif" font-size="14" lengthAdjust="spacing" textLength="200" x="1384.5" y="549.252">HeadLight(vector&lt;Point*&gt;): void</text></g><!--MD5=[afc736da9de27f6a69f4fe7ad5cdd6f2]
class DrawObject--><g id="elem_DrawObject"><rect codeLine="42" fill="#F1F1F1" height="83.2188" id="DrawObject" rx="2.5" ry="2.5" style="stroke:#181818;stroke-width:0.5;" width="164" x="957.5" y="277.1094"/><ellipse cx="999.05" cy="293.1094" fill="#A9DCDF" rx="11" ry="11" style="stroke:#181818;stroke-width:1.0;"/><path d="M996.9094,298.9688 L994.3156,298.9688 L997.6438,286.0313 L999.9719,286.0313 L1003.2844,298.9688 L1000.6906,298.9688 L999.7688,295.1875 L997.8469,295.1875 L996.9094,298.9688 Z M998.3625,289.5469 L998.3625,289.5469 L998.175,293.9219 L999.425,293.9219 L998.3625,289.5469 Z " fill="#000000"/><text fill="#000000" font-family="sans-serif" font-size="14" font-style="italic" lengthAdjust="spacing" textLength="73" x="1018.95" y="298.8379">DrawObject</text><line style="stroke:#181818;stroke-width:0.5;" x1="958.5" x2="1120.5" y1="309.1094" y2="309.1094"/><ellipse cx="968.5" cy="323.4141" fill="none" rx="3" ry="3" style="stroke:#038048;stroke-width:1.0;"/><text fill="#000000" font-family="sans-serif" font-size="14" lengthAdjust="spacing" textLength="138" x="977.5" y="327.6426">points: vector&lt;Point*&gt;</text><line style="stroke:#181818;stroke-width:0.5;" x1="958.5" x2="1120.5" y1="334.7188" y2="334.7188"/><ellipse cx="968.5" cy="349.0234" fill="#84BE84" rx="3" ry="3" style="stroke:#038048;stroke-width:1.0;"/><text fill="#000000" font-family="sans-serif" font-size="14" lengthAdjust="spacing" textLength="129" x="977.5" y="353.252">draw(int frame): void</text></g><!--MD5=[972bde5337b4335dd91fa5354c932445]
class Point--><g id="elem_Point"><rect codeLine="103" fill="#F1F1F1" height="48" id="Point" rx="2.5" ry="2.5" style="stroke:#181818;stroke-width:0.5;" width="64" x="1324.5" y="98.6094"/><ellipse cx="1339.5" cy="114.6094" fill="#ADD1B2" rx="11" ry="11" style="stroke:#181818;stroke-width:1.0;"/><path d="M1342.2031,120.0469 Q1341.2813,120.9688 1339.0156,120.9688 Q1337.75,120.9688 1336.8281,120.0469 Q1335.1719,118.3906 1335.1719,114.8594 Q1335.1719,110.75 1336.9531,108.9531 Q1337.8906,108.0313 1339.0781,108.0313 Q1341.3438,108.0313 1342.0781,108.75 Q1343.4688,110.1563 1343.4063,112.5469 L1340.9375,112.5469 Q1340.875,110.4219 1340.1406,109.6875 Q1339.75,109.2813 1339.0781,109.2813 Q1339.0781,109.2813 1339.0156,109.75 Q1337.6875,111.0781 1337.6875,114.7344 Q1337.6875,117.9219 1338.8281,119.0469 Q1339.3594,119.5781 1339.3594,119.5781 Q1339.6094,119.5781 1340.1406,119.0469 Q1340.8125,118.3906 1340.875,116 L1343.4688,116 Q1343.2656,118.9844 1342.2031,120.0469 Z " fill="#000000"/><text fill="#000000" font-family="sans-serif" font-size="14" lengthAdjust="spacing" textLength="32" x="1353.5" y="120.3379">Point</text><line style="stroke:#181818;stroke-width:0.5;" x1="1325.5" x2="1387.5" y1="130.6094" y2="130.6094"/><line style="stroke:#181818;stroke-width:0.5;" x1="1325.5" x2="1387.5" y1="138.6094" y2="138.6094"/></g><!--MD5=[a7f9118cae7621dd25d25149752faef0]
class Circle--><g id="elem_Circle"><rect codeLine="56" fill="#F1F1F1" height="153.6563" id="Circle" rx="2.5" ry="2.5" style="stroke:#181818;stroke-width:0.5;" width="316" x="1625.5" y="437.6094"/><ellipse cx="1761.25" cy="453.6094" fill="#ADD1B2" rx="11" ry="11" style="stroke:#181818;stroke-width:1.0;"/><path d="M1763.9531,459.0469 Q1763.0313,459.9688 1760.7656,459.9688 Q1759.5,459.9688 1758.5781,459.0469 Q1756.9219,457.3906 1756.9219,453.8594 Q1756.9219,449.75 1758.7031,447.9531 Q1759.6406,447.0313 1760.8281,447.0313 Q1763.0938,447.0313 1763.8281,447.75 Q1765.2188,449.1563 1765.1563,451.5469 L1762.6875,451.5469 Q1762.625,449.4219 1761.8906,448.6875 Q1761.5,448.2813 1760.8281,448.2813 Q1760.8281,448.2813 1760.7656,448.75 Q1759.4375,450.0781 1759.4375,453.7344 Q1759.4375,456.9219 1760.5781,458.0469 Q1761.1094,458.5781 1761.1094,458.5781 Q1761.3594,458.5781 1761.8906,458.0469 Q1762.5625,457.3906 1762.625,455 L1765.2188,455 Q1765.0156,457.9844 1763.9531,459.0469 Z " fill="#000000"/><text fill="#000000" font-family="sans-serif" font-size="14" lengthAdjust="spacing" textLength="36" x="1781.75" y="459.3379">Circle</text><line style="stroke:#181818;stroke-width:0.5;" x1="1626.5" x2="1940.5" y1="469.6094" y2="469.6094"/><ellipse cx="1636.5" cy="483.9141" fill="none" rx="3" ry="3" style="stroke:#038048;stroke-width:1.0;"/><text fill="#000000" font-family="sans-serif" font-size="14" lengthAdjust="spacing" textLength="150" x="1645.5" y="488.1426">coordinate: Coordinate*</text><ellipse cx="1636.5" cy="501.5234" fill="none" rx="3" ry="3" style="stroke:#038048;stroke-width:1.0;"/><text fill="#000000" font-family="sans-serif" font-size="14" lengthAdjust="spacing" textLength="63" x="1645.5" y="505.752">size: Size*</text><ellipse cx="1636.5" cy="519.1328" fill="none" rx="3" ry="3" style="stroke:#038048;stroke-width:1.0;"/><text fill="#000000" font-family="sans-serif" font-size="14" lengthAdjust="spacing" textLength="78" x="1645.5" y="523.3613">color: Color*</text><ellipse cx="1636.5" cy="536.7422" fill="none" rx="3" ry="3" style="stroke:#038048;stroke-width:1.0;"/><text fill="#000000" font-family="sans-serif" font-size="14" lengthAdjust="spacing" textLength="125" x="1645.5" y="540.9707">centerAngle: Angle*</text><line style="stroke:#181818;stroke-width:0.5;" x1="1626.5" x2="1940.5" y1="548.0469" y2="548.0469"/><ellipse cx="1636.5" cy="562.3516" fill="#84BE84" rx="3" ry="3" style="stroke:#038048;stroke-width:1.0;"/><text fill="#000000" font-family="sans-serif" font-size="14" lengthAdjust="spacing" textLength="290" x="1645.5" y="566.5801">Circle(Coordinate*, Size*, Color*, Angle*): void</text><ellipse cx="1636.5" cy="579.9609" fill="#84BE84" rx="3" ry="3" style="stroke:#038048;stroke-width:1.0;"/><text fill="#000000" font-family="sans-serif" font-size="14" lengthAdjust="spacing" textLength="119" x="1645.5" y="584.1895">fillCircle(void): void</text></g><!--MD5=[826ca26f6cba7b0669a8580da7a62d4c]
class Quadrangle--><g id="elem_Quadrangle"><rect codeLine="65" fill="#F1F1F1" height="100.8281" id="Quadrangle" rx="2.5" ry="2.5" style="stroke:#181818;stroke-width:0.5;" width="306" x="1976.5" y="464.1094"/><ellipse cx="2087.75" cy="480.1094" fill="#ADD1B2" rx="11" ry="11" style="stroke:#181818;stroke-width:1.0;"/><path d="M2090.4531,485.5469 Q2089.5313,486.4688 2087.2656,486.4688 Q2086,486.4688 2085.0781,485.5469 Q2083.4219,483.8906 2083.4219,480.3594 Q2083.4219,476.25 2085.2031,474.4531 Q2086.1406,473.5313 2087.3281,473.5313 Q2089.5938,473.5313 2090.3281,474.25 Q2091.7188,475.6563 2091.6563,478.0469 L2089.1875,478.0469 Q2089.125,475.9219 2088.3906,475.1875 Q2088,474.7813 2087.3281,474.7813 Q2087.3281,474.7813 2087.2656,475.25 Q2085.9375,476.5781 2085.9375,480.2344 Q2085.9375,483.4219 2087.0781,484.5469 Q2087.6094,485.0781 2087.6094,485.0781 Q2087.8594,485.0781 2088.3906,484.5469 Q2089.0625,483.8906 2089.125,481.5 L2091.7188,481.5 Q2091.5156,484.4844 2090.4531,485.5469 Z " fill="#000000"/><text fill="#000000" font-family="sans-serif" font-size="14" lengthAdjust="spacing" textLength="75" x="2108.25" y="485.8379">Quadrangle</text><line style="stroke:#181818;stroke-width:0.5;" x1="1977.5" x2="2281.5" y1="496.1094" y2="496.1094"/><ellipse cx="1987.5" cy="510.4141" fill="none" rx="3" ry="3" style="stroke:#038048;stroke-width:1.0;"/><text fill="#000000" font-family="sans-serif" font-size="14" lengthAdjust="spacing" textLength="232" x="1996.5" y="514.6426">coordinate: std::vector&lt;Coordinate*&gt;</text><ellipse cx="1987.5" cy="528.0234" fill="none" rx="3" ry="3" style="stroke:#038048;stroke-width:1.0;"/><text fill="#000000" font-family="sans-serif" font-size="14" lengthAdjust="spacing" textLength="78" x="1996.5" y="532.252">color: Color*</text><line style="stroke:#181818;stroke-width:0.5;" x1="1977.5" x2="2281.5" y1="539.3281" y2="539.3281"/><ellipse cx="1987.5" cy="553.6328" fill="#84BE84" rx="3" ry="3" style="stroke:#038048;stroke-width:1.0;"/><text fill="#000000" font-family="sans-serif" font-size="14" lengthAdjust="spacing" textLength="280" x="1996.5" y="557.8613">Quadrangle(Coordinate*, Size*, Color*): void</text></g><!--MD5=[426e75666daf533f17226ff4c87e20fd]
class Shape--><g id="elem_Shape"><rect codeLine="71" fill="#F1F1F1" height="118.4375" id="Shape" rx="2.5" ry="2.5" style="stroke:#181818;stroke-width:0.5;" width="281" x="1761" y="259.6094"/><ellipse cx="1876.75" cy="275.6094" fill="#A9DCDF" rx="11" ry="11" style="stroke:#181818;stroke-width:1.0;"/><path d="M1874.6094,281.4688 L1872.0156,281.4688 L1875.3438,268.5313 L1877.6719,268.5313 L1880.9844,281.4688 L1878.3906,281.4688 L1877.4688,277.6875 L1875.5469,277.6875 L1874.6094,281.4688 Z M1876.0625,272.0469 L1876.0625,272.0469 L1875.875,276.4219 L1877.125,276.4219 L1876.0625,272.0469 Z " fill="#000000"/><text fill="#000000" font-family="sans-serif" font-size="14" font-style="italic" lengthAdjust="spacing" textLength="41" x="1897.25" y="281.3379">Shape</text><line style="stroke:#181818;stroke-width:0.5;" x1="1762" x2="2041" y1="291.6094" y2="291.6094"/><ellipse cx="1772" cy="305.9141" fill="none" rx="3" ry="3" style="stroke:#038048;stroke-width:1.0;"/><text fill="#000000" font-family="sans-serif" font-size="14" lengthAdjust="spacing" textLength="150" x="1781" y="310.1426">coordinate: Coordinate*</text><ellipse cx="1772" cy="323.5234" fill="none" rx="3" ry="3" style="stroke:#038048;stroke-width:1.0;"/><text fill="#000000" font-family="sans-serif" font-size="14" lengthAdjust="spacing" textLength="63" x="1781" y="327.752">size: Size*</text><ellipse cx="1772" cy="341.1328" fill="none" rx="3" ry="3" style="stroke:#038048;stroke-width:1.0;"/><text fill="#000000" font-family="sans-serif" font-size="14" lengthAdjust="spacing" textLength="78" x="1781" y="345.3613">color: Color*</text><line style="stroke:#181818;stroke-width:0.5;" x1="1762" x2="2041" y1="352.4375" y2="352.4375"/><ellipse cx="1772" cy="366.7422" fill="#84BE84" rx="3" ry="3" style="stroke:#038048;stroke-width:1.0;"/><text fill="#000000" font-family="sans-serif" font-size="14" lengthAdjust="spacing" textLength="255" x="1781" y="370.9707">draw(int, vector&lt;Point*&gt;): vector&lt;Point*&gt;</text></g><!--MD5=[8c7d7abc12e214c3cc12c9ab70edee11]
class Coordinate--><g id="elem_Coordinate"><rect codeLine="82" fill="#F1F1F1" height="100.8281" id="Coordinate" rx="2.5" ry="2.5" style="stroke:#181818;stroke-width:0.5;" width="178" x="1621.5" y="72.1094"/><ellipse cx="1671.25" cy="88.1094" fill="#ADD1B2" rx="11" ry="11" style="stroke:#181818;stroke-width:1.0;"/><path d="M1673.9531,93.5469 Q1673.0313,94.4688 1670.7656,94.4688 Q1669.5,94.4688 1668.5781,93.5469 Q1666.9219,91.8906 1666.9219,88.3594 Q1666.9219,84.25 1668.7031,82.4531 Q1669.6406,81.5313 1670.8281,81.5313 Q1673.0938,81.5313 1673.8281,82.25 Q1675.2188,83.6563 1675.1563,86.0469 L1672.6875,86.0469 Q1672.625,83.9219 1671.8906,83.1875 Q1671.5,82.7813 1670.8281,82.7813 Q1670.8281,82.7813 1670.7656,83.25 Q1669.4375,84.5781 1669.4375,88.2344 Q1669.4375,91.4219 1670.5781,92.5469 Q1671.1094,93.0781 1671.1094,93.0781 Q1671.3594,93.0781 1671.8906,92.5469 Q1672.5625,91.8906 1672.625,89.5 L1675.2188,89.5 Q1675.0156,92.4844 1673.9531,93.5469 Z " fill="#000000"/><text fill="#000000" font-family="sans-serif" font-size="14" lengthAdjust="spacing" textLength="70" x="1691.75" y="93.8379">Coordinate</text><line style="stroke:#181818;stroke-width:0.5;" x1="1622.5" x2="1798.5" y1="104.1094" y2="104.1094"/><ellipse cx="1632.5" cy="118.4141" fill="none" rx="3" ry="3" style="stroke:#038048;stroke-width:1.0;"/><text fill="#000000" font-family="sans-serif" font-size="14" lengthAdjust="spacing" textLength="29" x="1641.5" y="122.6426">x: int</text><ellipse cx="1632.5" cy="136.0234" fill="none" rx="3" ry="3" style="stroke:#038048;stroke-width:1.0;"/><text fill="#000000" font-family="sans-serif" font-size="14" lengthAdjust="spacing" textLength="30" x="1641.5" y="140.252">y: int</text><line style="stroke:#181818;stroke-width:0.5;" x1="1622.5" x2="1798.5" y1="147.3281" y2="147.3281"/><ellipse cx="1632.5" cy="161.6328" fill="#84BE84" rx="3" ry="3" style="stroke:#038048;stroke-width:1.0;"/><text fill="#000000" font-family="sans-serif" font-size="14" lengthAdjust="spacing" textLength="152" x="1641.5" y="165.8613">Coordinate(int, int): void</text></g><!--MD5=[e09c41c2f9238e7adb85a94dde2227e7]
class Size--><g id="elem_Size"><rect codeLine="88" fill="#F1F1F1" height="100.8281" id="Size" rx="2.5" ry="2.5" style="stroke:#181818;stroke-width:0.5;" width="134" x="1834.5" y="72.1094"/><ellipse cx="1884.25" cy="88.1094" fill="#ADD1B2" rx="11" ry="11" style="stroke:#181818;stroke-width:1.0;"/><path d="M1886.9531,93.5469 Q1886.0313,94.4688 1883.7656,94.4688 Q1882.5,94.4688 1881.5781,93.5469 Q1879.9219,91.8906 1879.9219,88.3594 Q1879.9219,84.25 1881.7031,82.4531 Q1882.6406,81.5313 1883.8281,81.5313 Q1886.0938,81.5313 1886.8281,82.25 Q1888.2188,83.6563 1888.1563,86.0469 L1885.6875,86.0469 Q1885.625,83.9219 1884.8906,83.1875 Q1884.5,82.7813 1883.8281,82.7813 Q1883.8281,82.7813 1883.7656,83.25 Q1882.4375,84.5781 1882.4375,88.2344 Q1882.4375,91.4219 1883.5781,92.5469 Q1884.1094,93.0781 1884.1094,93.0781 Q1884.3594,93.0781 1884.8906,92.5469 Q1885.5625,91.8906 1885.625,89.5 L1888.2188,89.5 Q1888.0156,92.4844 1886.9531,93.5469 Z " fill="#000000"/><text fill="#000000" font-family="sans-serif" font-size="14" lengthAdjust="spacing" textLength="26" x="1904.75" y="93.8379">Size</text><line style="stroke:#181818;stroke-width:0.5;" x1="1835.5" x2="1967.5" y1="104.1094" y2="104.1094"/><ellipse cx="1845.5" cy="118.4141" fill="none" rx="3" ry="3" style="stroke:#038048;stroke-width:1.0;"/><text fill="#000000" font-family="sans-serif" font-size="14" lengthAdjust="spacing" textLength="29" x="1854.5" y="122.6426">x: int</text><ellipse cx="1845.5" cy="136.0234" fill="none" rx="3" ry="3" style="stroke:#038048;stroke-width:1.0;"/><text fill="#000000" font-family="sans-serif" font-size="14" lengthAdjust="spacing" textLength="30" x="1854.5" y="140.252">y: int</text><line style="stroke:#181818;stroke-width:0.5;" x1="1835.5" x2="1967.5" y1="147.3281" y2="147.3281"/><ellipse cx="1845.5" cy="161.6328" fill="#84BE84" rx="3" ry="3" style="stroke:#038048;stroke-width:1.0;"/><text fill="#000000" font-family="sans-serif" font-size="14" lengthAdjust="spacing" textLength="108" x="1854.5" y="165.8613">Size(int, int): void</text></g><!--MD5=[18eee71c88ab61f27581b8cbdd3ef5ee]
class Color--><g id="elem_Color"><rect codeLine="94" fill="#F1F1F1" height="153.6563" id="Color" rx="2.5" ry="2.5" style="stroke:#181818;stroke-width:0.5;" width="188" x="2003.5" y="45.6094"/><ellipse cx="2076.25" cy="61.6094" fill="#ADD1B2" rx="11" ry="11" style="stroke:#181818;stroke-width:1.0;"/><path d="M2078.9531,67.0469 Q2078.0313,67.9688 2075.7656,67.9688 Q2074.5,67.9688 2073.5781,67.0469 Q2071.9219,65.3906 2071.9219,61.8594 Q2071.9219,57.75 2073.7031,55.9531 Q2074.6406,55.0313 2075.8281,55.0313 Q2078.0938,55.0313 2078.8281,55.75 Q2080.2188,57.1563 2080.1563,59.5469 L2077.6875,59.5469 Q2077.625,57.4219 2076.8906,56.6875 Q2076.5,56.2813 2075.8281,56.2813 Q2075.8281,56.2813 2075.7656,56.75 Q2074.4375,58.0781 2074.4375,61.7344 Q2074.4375,64.9219 2075.5781,66.0469 Q2076.1094,66.5781 2076.1094,66.5781 Q2076.3594,66.5781 2076.8906,66.0469 Q2077.5625,65.3906 2077.625,63 L2080.2188,63 Q2080.0156,65.9844 2078.9531,67.0469 Z " fill="#000000"/><text fill="#000000" font-family="sans-serif" font-size="14" lengthAdjust="spacing" textLength="34" x="2096.75" y="67.3379">Color</text><line style="stroke:#181818;stroke-width:0.5;" x1="2004.5" x2="2190.5" y1="77.6094" y2="77.6094"/><ellipse cx="2014.5" cy="91.9141" fill="none" rx="3" ry="3" style="stroke:#038048;stroke-width:1.0;"/><text fill="#000000" font-family="sans-serif" font-size="14" lengthAdjust="spacing" textLength="44" x="2023.5" y="96.1426">red: int</text><ellipse cx="2014.5" cy="109.5234" fill="none" rx="3" ry="3" style="stroke:#038048;stroke-width:1.0;"/><text fill="#000000" font-family="sans-serif" font-size="14" lengthAdjust="spacing" textLength="50" x="2023.5" y="113.752">blue: int</text><ellipse cx="2014.5" cy="127.1328" fill="none" rx="3" ry="3" style="stroke:#038048;stroke-width:1.0;"/><text fill="#000000" font-family="sans-serif" font-size="14" lengthAdjust="spacing" textLength="60" x="2023.5" y="131.3613">green: int</text><ellipse cx="2014.5" cy="144.7422" fill="none" rx="3" ry="3" style="stroke:#038048;stroke-width:1.0;"/><text fill="#000000" font-family="sans-serif" font-size="14" lengthAdjust="spacing" textLength="106" x="2023.5" y="148.9707">transparancy: int</text><line style="stroke:#181818;stroke-width:0.5;" x1="2004.5" x2="2190.5" y1="156.0469" y2="156.0469"/><ellipse cx="2014.5" cy="170.3516" fill="#84BE84" rx="3" ry="3" style="stroke:#038048;stroke-width:1.0;"/><text fill="#000000" font-family="sans-serif" font-size="14" lengthAdjust="spacing" textLength="162" x="2023.5" y="174.5801">Color(int, int, int, int): void</text><ellipse cx="2014.5" cy="187.9609" fill="#84BE84" rx="3" ry="3" style="stroke:#038048;stroke-width:1.0;"/><text fill="#000000" font-family="sans-serif" font-size="14" lengthAdjust="spacing" textLength="93" x="2023.5" y="192.1895">Color(int): void</text></g><!--MD5=[721900c9b1e6ee6a764f2567704251f9]
class Angle--><g id="elem_Angle"><rect codeLine="109" fill="#F1F1F1" height="83.2188" id="Angle" rx="2.5" ry="2.5" style="stroke:#181818;stroke-width:0.5;" width="121" x="1605" y="277.1094"/><ellipse cx="1643.85" cy="293.1094" fill="#ADD1B2" rx="11" ry="11" style="stroke:#181818;stroke-width:1.0;"/><path d="M1646.5531,298.5469 Q1645.6313,299.4688 1643.3656,299.4688 Q1642.1,299.4688 1641.1781,298.5469 Q1639.5219,296.8906 1639.5219,293.3594 Q1639.5219,289.25 1641.3031,287.4531 Q1642.2406,286.5313 1643.4281,286.5313 Q1645.6938,286.5313 1646.4281,287.25 Q1647.8188,288.6563 1647.7563,291.0469 L1645.2875,291.0469 Q1645.225,288.9219 1644.4906,288.1875 Q1644.1,287.7813 1643.4281,287.7813 Q1643.4281,287.7813 1643.3656,288.25 Q1642.0375,289.5781 1642.0375,293.2344 Q1642.0375,296.4219 1643.1781,297.5469 Q1643.7094,298.0781 1643.7094,298.0781 Q1643.9594,298.0781 1644.4906,297.5469 Q1645.1625,296.8906 1645.225,294.5 L1647.8188,294.5 Q1647.6156,297.4844 1646.5531,298.5469 Z " fill="#000000"/><text fill="#000000" font-family="sans-serif" font-size="14" lengthAdjust="spacing" textLength="36" x="1663.15" y="298.8379">Angle</text><line style="stroke:#181818;stroke-width:0.5;" x1="1606" x2="1725" y1="309.1094" y2="309.1094"/><ellipse cx="1616" cy="323.4141" fill="none" rx="3" ry="3" style="stroke:#038048;stroke-width:1.0;"/><text fill="#000000" font-family="sans-serif" font-size="14" lengthAdjust="spacing" textLength="58" x="1625" y="327.6426">angle: int</text><line style="stroke:#181818;stroke-width:0.5;" x1="1606" x2="1725" y1="334.7188" y2="334.7188"/><ellipse cx="1616" cy="349.0234" fill="#84BE84" rx="3" ry="3" style="stroke:#038048;stroke-width:1.0;"/><text fill="#000000" font-family="sans-serif" font-size="14" lengthAdjust="spacing" textLength="95" x="1625" y="353.252">Angle(int): void</text></g><!--MD5=[01a126fda371ca9d35691eca6d68f03f]
reverse link GenerateImage to OutputFile--><g id="link_GenerateImage_OutputFile"><path codeLine="7" d="M118.5,570.4194 C118.5,596.5994 118.5,627.3994 118.5,651.4594 " fill="none" id="GenerateImage-backto-OutputFile" style="stroke:#181818;stroke-width:1.0;stroke-dasharray:7.0,7.0;"/><polygon fill="#181818" points="118.5,565.2394,114.5,574.2394,118.5,570.2394,122.5,574.2394,118.5,565.2394" style="stroke:#181818;stroke-width:1.0;"/></g><!--MD5=[b039acce8b27014b6bd44f9f4bb6662b]
reverse link DrawObject to GenerateImage--><g id="link_DrawObject_GenerateImage"><path codeLine="46" d="M951.98,321.7794 C803.13,327.8194 492.93,350.7494 247.5,437.6094 C228.51,444.3294 209.19,453.9494 191.49,464.0894 " fill="none" id="DrawObject-backto-GenerateImage" style="stroke:#181818;stroke-width:1.0;stroke-dasharray:7.0,7.0;"/><polygon fill="#181818" points="957.21,321.5694,948.0573,317.9323,952.214,321.7692,948.3771,325.9259,957.21,321.5694" style="stroke:#181818;stroke-width:1.0;"/></g><!--MD5=[a8abf21bdc0fb64d80c2c5ef79d3de3e]
reverse link Point to DrawObject--><g id="link_Point_DrawObject"><path codeLine="47" d="M1320.07,145.9094 C1267.89,177.8394 1171,237.1294 1105.89,276.9794 " fill="none" id="Point-backto-DrawObject" style="stroke:#181818;stroke-width:1.0;stroke-dasharray:7.0,7.0;"/><polygon fill="#181818" points="1324.36,143.2794,1314.5975,144.5805,1320.0993,145.8959,1318.7839,151.3977,1324.36,143.2794" style="stroke:#181818;stroke-width:1.0;"/></g><!--MD5=[f72b9f2c45fecd6d466c78113fd1255a]
reverse link DrawObject to Background--><g id="link_DrawObject_Background"><path codeLine="48" d="M937.03,334.1794 C830.7,351.3094 660.77,384.3594 521.5,437.6094 C496.86,447.0294 471.22,460.2294 448.88,472.9794 " fill="none" id="DrawObject-backto-Background" style="stroke:#181818;stroke-width:1.0;"/><polygon fill="none" points="936.26,327.2194,957.1,331.0094,938.44,341.0394,936.26,327.2194" style="stroke:#181818;stroke-width:1.0;"/></g><!--MD5=[4f536dc0efd12fd34b7cc3e37775f34e]
reverse link DrawObject to TunnelWall--><g id="link_DrawObject_TunnelWall"><path codeLine="49" d="M938.95,364.9794 C892.99,386.2494 838.09,412.4094 789.5,437.6094 C768.25,448.6294 745.48,461.2294 724.85,472.9694 " fill="none" id="DrawObject-backto-TunnelWall" style="stroke:#181818;stroke-width:1.0;"/><polygon fill="none" points="936.3,358.4894,957.4,356.4794,942.16,371.2094,936.3,358.4894" style="stroke:#181818;stroke-width:1.0;"/></g><!--MD5=[f464292fd3578f9d113e572038ce58fc]
reverse link DrawObject to Light--><g id="link_DrawObject_Light"><path codeLine="50" d="M1003.07,377.5394 C983.73,408.2894 960.44,445.3294 943.04,472.9894 " fill="none" id="DrawObject-backto-Light" style="stroke:#181818;stroke-width:1.0;"/><polygon fill="none" points="997.35,373.4794,1013.92,360.2794,1009.2,380.9394,997.35,373.4794" style="stroke:#181818;stroke-width:1.0;"/></g><!--MD5=[b525013300e6ae66a0d604b3b995f982]
reverse link DrawObject to Road--><g id="link_DrawObject_Road"><path codeLine="51" d="M1075.63,377.5394 C1094.81,408.2894 1117.91,445.3294 1135.17,472.9894 " fill="none" id="DrawObject-backto-Road" style="stroke:#181818;stroke-width:1.0;"/><polygon fill="none" points="1069.51,380.9494,1064.87,360.2794,1081.39,373.5394,1069.51,380.9494" style="stroke:#181818;stroke-width:1.0;"/></g><!--MD5=[e1432a7e2ba72236ba0d03d14c3f6b91]
reverse link DrawObject to WhiteLine--><g id="link_DrawObject_WhiteLine"><path codeLine="52" d="M1140.71,343.3594 C1190.46,360.6794 1245.94,389.7694 1275.5,437.6094 C1316.53,503.9994 1283.04,598.1294 1257.56,651.3394 " fill="none" id="DrawObject-backto-WhiteLine" style="stroke:#181818;stroke-width:1.0;"/><polygon fill="none" points="1138.51,349.9994,1121.64,337.1694,1142.83,336.6794,1138.51,349.9994" style="stroke:#181818;stroke-width:1.0;"/></g><!--MD5=[90b8a85c191421c5fb28623666ac00f8]
reverse link DrawObject to HeadLight--><g id="link_DrawObject_HeadLight"><path codeLine="53" d="M1140.3,356.0694 C1198.64,378.0194 1273.05,407.4894 1337.5,437.6094 C1360.43,448.3194 1384.85,461.0894 1406.77,473.0694 " fill="none" id="DrawObject-backto-HeadLight" style="stroke:#181818;stroke-width:1.0;"/><polygon fill="none" points="1137.85,362.6194,1121.57,349.0694,1142.75,349.5094,1137.85,362.6194" style="stroke:#181818;stroke-width:1.0;"/></g><!--MD5=[33730288499fd9be633b6cb82788e498]
reverse link Road to WhiteLine--><g id="link_Road_WhiteLine"><path codeLine="54" d="M1183.07,568.7194 C1194.34,595.2394 1207.76,626.8194 1218.2,651.3994 " fill="none" id="Road-backto-WhiteLine" style="stroke:#181818;stroke-width:1.0;"/><polygon fill="#181818" points="1177.9,556.5494,1176.5644,563.6357,1182.592,567.5941,1183.9276,560.5077,1177.9,556.5494" style="stroke:#181818;stroke-width:1.0;"/></g><!--MD5=[d637a7d0c5b779627461b5a6979d5756]
reverse link Shape to Circle--><g id="link_Shape_Circle"><path codeLine="79" d="M1855.62,395.0394 C1847.15,408.9694 1838.29,423.5194 1829.81,437.4794 " fill="none" id="Shape-backto-Circle" style="stroke:#181818;stroke-width:1.0;"/><polygon fill="none" points="1849.72,391.2694,1866.1,377.8194,1861.68,398.5394,1849.72,391.2694" style="stroke:#181818;stroke-width:1.0;"/></g><!--MD5=[51d8dbbf01572d4a3e4d48ff7298cc7c]
reverse link Shape to Quadrangle--><g id="link_Shape_Quadrangle"><path codeLine="80" d="M1985.41,391.0094 C2013.91,415.2494 2045.1,441.7994 2071.16,463.9694 " fill="none" id="Shape-backto-Quadrangle" style="stroke:#181818;stroke-width:1.0;"/><polygon fill="none" points="1980.6,396.1094,1969.91,377.8194,1989.68,385.4494,1980.6,396.1094" style="stroke:#181818;stroke-width:1.0;"/></g><!--MD5=[8d572731dde3d9162444b2da9d6e3def]
reverse link Coordinate to Shape--><g id="link_Coordinate_Shape"><path codeLine="105" d="M1763.11,177.0494 C1788.28,202.6094 1818.47,233.2694 1844.21,259.4194 " fill="none" id="Coordinate-backto-Shape" style="stroke:#181818;stroke-width:1.0;stroke-dasharray:7.0,7.0;"/><polygon fill="#181818" points="1759.44,173.3194,1762.9198,182.533,1762.954,176.8763,1768.6108,176.9106,1759.44,173.3194" style="stroke:#181818;stroke-width:1.0;"/></g><!--MD5=[72b238297eb847ac5b80ed3b52603baf]
reverse link Size to Shape--><g id="link_Size_Shape"><path codeLine="106" d="M1901.5,178.6294 C1901.5,203.8694 1901.5,233.8094 1901.5,259.4194 " fill="none" id="Size-backto-Shape" style="stroke:#181818;stroke-width:1.0;stroke-dasharray:7.0,7.0;"/><polygon fill="#181818" points="1901.5,173.3194,1897.5,182.3194,1901.5,178.3194,1905.5,182.3194,1901.5,173.3194" style="stroke:#181818;stroke-width:1.0;"/></g><!--MD5=[b47f098324086c51be42de90efa6aeaa]
reverse link Color to Shape--><g id="link_Color_Shape"><path codeLine="107" d="M2016.82,203.4594 C1997.89,222.1994 1978.07,241.8294 1960.3,259.4094 " fill="none" id="Color-backto-Shape" style="stroke:#181818;stroke-width:1.0;stroke-dasharray:7.0,7.0;"/><polygon fill="#181818" points="2020.6,199.7294,2011.3934,203.2278,2017.0502,203.2506,2017.0274,208.9074,2020.6,199.7294" style="stroke:#181818;stroke-width:1.0;"/></g><!--MD5=[a2a3c558a092f38d666d63d2727bcf25]
reverse link Point to Shape--><g id="link_Point_Shape"><path codeLine="108" d="M1393.48,136.4094 C1462.42,160.3294 1615.22,213.5294 1743.5,259.6094 C1749.14,261.6394 1754.89,263.7094 1760.69,265.8094 " fill="none" id="Point-backto-Shape" style="stroke:#181818;stroke-width:1.0;stroke-dasharray:7.0,7.0;"/><polygon fill="#181818" points="1388.66,134.7394,1395.8488,141.4715,1393.3831,136.3803,1398.4743,133.9146,1388.66,134.7394" style="stroke:#181818;stroke-width:1.0;"/></g><!--MD5=[53e8f5650f6c9d69a246f790b39da79a]
reverse link Angle to Circle--><g id="link_Angle_Circle"><path codeLine="114" d="M1692.99,364.8094 C1706.11,386.3794 1722.17,412.7894 1737.11,437.3394 " fill="none" id="Angle-backto-Circle" style="stroke:#181818;stroke-width:1.0;stroke-dasharray:7.0,7.0;"/><polygon fill="#181818" points="1690.24,360.2794,1691.5027,370.0469,1692.8397,364.5504,1698.3363,365.8874,1690.24,360.2794" style="stroke:#181818;stroke-width:1.0;"/></g><!--MD5=[b47d6496717b6e42da13668c691f8c24]
@startuml carDrivingInTunnel_ClassDiagram
title carDrivingInTunnel_ClassDiagram
class OutputFile{
  +outputString: std::string

  +OutputFile(void): void
}
GenerateImage <.. OutputFile
class GenerateImage{
  +drawObjects: DrawObject*

  +GenerateImage(int frame): void
  +makeImage(void): std::string
}
class Background{
  +rectangle: Quadrangle*
  +Background(vector<Point*>): void
}
class TunnelWall{
  +tunnelCrossSection: Circle*
  +TunnelWall(vector<Point*>): void
}
class Light{
  +lightBlur: vector<Quadrangle*>

  +Light(vector<Point*>): void
}
class Road{
  +trapezoid: Quadrangle*

  +Road(vector<Point*>): void
}
class WhiteLine{
  +trapezoid: Quadrangle*

  +WhiteLine(vector<Point*>): void
}
class HeadLight{
  +lightBlur: vector<Circle*>

  +HeadLight(vector<Point*>): void
}
abstract class DrawObject{
  +points: vector<Point*>
  +draw(int frame): void
}
DrawObject <.. GenerateImage
Point <.. DrawObject
DrawObject <|- - Background
DrawObject <|- - TunnelWall
DrawObject <|- - Light
DrawObject <|- - Road
DrawObject <|- - WhiteLine
DrawObject <|- - HeadLight
Road *- - WhiteLine

class Circle{
  +coordinate: Coordinate*
  +size: Size*
  +color: Color*
  +centerAngle: Angle*
 
  +Circle(Coordinate*, Size*, Color*, Angle*): void
  +fillCircle(void): void
}
class Quadrangle{
  +coordinate: std::vector<Coordinate*>
  +color: Color*
 
  +Quadrangle(Coordinate*, Size*, Color*): void
}
abstract class Shape{
  +coordinate: Coordinate*
  +size: Size*
  +color: Color*
 
  +draw(int, vector<Point*>): vector<Point*>
}

Shape <|- - Circle
Shape <|- - Quadrangle

class Coordinate{
  +x: int
  +y: int
 
  +Coordinate(int, int): void
}
class Size{
  +x: int
  +y: int
 
  +Size(int, int): void
}
class Color{
  +red: int
  +blue: int
  +green: int
  +transparancy: int
 
  +Color(int, int, int, int): void
  +Color(int): void
}
class Point{
}
Coordinate <.. Shape
Size <.. Shape
Color <.. Shape
Point <..Shape
class Angle{
  +angle: int
 
  +Angle(int): void
}
Angle <..Circle
@enduml

PlantUML version 1.2022.7(Tue Aug 23 02:01:30 JST 2022)
(GPL source distribution)
Java Runtime: Java(TM) SE Runtime Environment
JVM: Java HotSpot(TM) 64-Bit Server VM
Default Encoding: MS932
Language: ja
Country: JP
--></g></svg>